HIERARCHY
ROOT Hips
{
	OFFSET -3.958830 18.904000 13.208200
	CHANNELS 6 Xposition Yposition Zposition Zrotation Yrotation Xrotation 
	JOINT LHipJoint
	{
		OFFSET 0.000000 0.000000 0.000000
		CHANNELS 3 Zrotation Yrotation Xrotation
		JOINT LeftUpLeg
		{
			OFFSET 1.800000 -1.400000 0.085000
			CHANNELS 3 Zrotation Yrotation Xrotation
			JOINT LeftLeg
			{
				OFFSET 2.215000 -6.000000 0.000000
				CHANNELS 3 Zrotation Yrotation Xrotation
				JOINT LeftFoot
				{
					OFFSET 2.500000 -6.900000 0.000000
					CHANNELS 3 Zrotation Yrotation Xrotation
					JOINT LeftToeBase
					{
						OFFSET 0.200000 -0.500000 1.950000
						CHANNELS 3 Zrotation Yrotation Xrotation
						End Site
						{
							OFFSET 0.000000 0.000000 0.000000
						}
					}
				}
			}
		}
	}
	JOINT RHipJoint
	{
		OFFSET 0.000000 0.000000 0.000000
		CHANNELS 3 Zrotation Yrotation Xrotation
		JOINT RightUpLeg
		{
			OFFSET -1.800000 -1.400000 0.085000
			CHANNELS 3 Zrotation Yrotation Xrotation
			JOINT RightLeg
			{
				OFFSET -2.215000 -6.000000 0.000000
				CHANNELS 3 Zrotation Yrotation Xrotation
				JOINT RightFoot
				{
					OFFSET -2.500000 -6.900000 0.000000
					CHANNELS 3 Zrotation Yrotation Xrotation
					JOINT RightToeBase
					{
						OFFSET -0.200000 -0.500000 1.950000
						CHANNELS 3 Zrotation Yrotation Xrotation
						End Site
						{
							OFFSET 0.000000 0.000000 0.000000
						}
					}
				}
			}
		}
	}
	JOINT LowerBack
	{
		OFFSET 0.000000 0.000000 0.000000
		CHANNELS 3 Zrotation Yrotation Xrotation
		JOINT Spine
		{
			OFFSET -0.087000 1.940000 -0.288900
			CHANNELS 3 Zrotation Yrotation Xrotation
			JOINT Spine1
			{
				OFFSET 0.000000 1.950000 0.060000
				CHANNELS 3 Zrotation Yrotation Xrotation
				JOINT Neck
				{
					OFFSET 0.000000 0.000000 0.000000
					CHANNELS 3 Zrotation Yrotation Xrotation
					JOINT Neck1
					{
						OFFSET 0.000000 1.600000 0.340000
						CHANNELS 3 Zrotation Yrotation Xrotation
						JOINT Head
						{
							OFFSET 0.000000 1.667000 -0.240000
							CHANNELS 3 Zrotation Yrotation Xrotation
							End Site
							{
								OFFSET 0.000000 0.000000 0.000000
							}
						}
					}
				}
				JOINT LeftShoulder
				{
					OFFSET 0.000000 0.000000 0.000000
					CHANNELS 3 Zrotation Yrotation Xrotation
					JOINT LeftArm
					{
						OFFSET 2.700000 1.550000 -0.730000
						CHANNELS 3 Zrotation Yrotation Xrotation
						JOINT LeftForeArm
						{
							OFFSET 5.450000 0.000000 0.000000
							CHANNELS 3 Zrotation Yrotation Xrotation
							JOINT LeftHand
							{
								OFFSET 3.450000 0.000000 0.000000
								CHANNELS 3 Zrotation Yrotation Xrotation
								JOINT LeftHandIndex1
								{
									OFFSET 0.750000 0.000000 0.000000
									CHANNELS 3 Zrotation Yrotation Xrotation
									End Site
									{
										OFFSET 0.000000 0.000000 0.000000
									}
								}
							}
						}
					}
				}
				JOINT RightShoulder
				{
					OFFSET 0.000000 0.000000 0.000000
					CHANNELS 3 Zrotation Yrotation Xrotation
					JOINT RightArm
					{
						OFFSET -2.700000 1.550000 -0.730000
						CHANNELS 3 Zrotation Yrotation Xrotation
						JOINT RightForeArm
						{
							OFFSET -5.450000 0.000000 0.000000
							CHANNELS 3 Zrotation Yrotation Xrotation
							JOINT RightHand
							{
								OFFSET -3.450000 0.000000 0.000000
								CHANNELS 3 Zrotation Yrotation Xrotation
								JOINT RightHandIndex1
								{
									OFFSET -0.750000 0.000000 0.000000
									CHANNELS 3 Zrotation Yrotation Xrotation
									End Site
									{
										OFFSET 0.000000 0.000000 0.000000
									}
								}
							}
						}
					}
				}
			}
		}
	}
}
MOTION
Frames: 13
Frame Time: 0.016667
4.529470 17.460870 -12.804400 8.614244 -6.463313 -6.132563 -15.332632 10.060031 6.518954 38.566219 1.645075 -21.947059 -51.171790 51.154773 50.131257 2.425298 14.972636 -0.022921 -0.013940 -0.063000 -0.360550 18.503348 -9.506952 2.228218 -15.251433 0.772894 -11.617927 8.613086 -3.894198 0.784584 -0.366991 -3.510069 3.195064 -0.099460 0.751720 0.228440 -3.855423 0.301816 -9.606796 -0.268665 -1.679535 23.976140 -12.222975 3.727805 12.013636 1.079161 -5.816712 -17.912482 -12.793943 1.753422 44.076016 5.558510 -7.258020 -10.425460 -7.335032 -22.862142 11.632544 -19.910977 2.879791 -1.484752 9.895110 -6.439494 -1.160312 -3.849175 2.549899 0.599800 0.132590 0.038150 0.338630 5.915979 32.480678 11.227194 24.966700 18.328020 -8.672829 19.930607 43.857415 4.890967 1.902774 -1.163248 -0.293800 0.577580 0.262450 0.246810 
4.479700 17.466380 -12.793740 9.081182 -6.654959 -5.868231 -15.361284 9.942063 6.626766 39.333719 2.119168 -22.816256 -54.020699 53.541237 49.812983 2.413495 14.853516 0.033521 -0.028610 -0.092570 -0.340630 18.502806 -9.446969 2.218946 -15.399255 0.839130 -11.647700 8.568494 -3.824281 0.417355 -0.365154 -3.500679 3.188035 -0.102950 0.758140 0.214590 -3.827138 0.390061 -9.646122 -0.871739 -1.421918 23.938166 -12.321252 3.925467 11.538043 1.106010 -5.737340 -17.590065 -12.478506 1.078187 43.412209 5.261900 -7.621040 -11.014090 -6.998577 -22.315406 11.279990 -19.898258 2.525038 -1.580208 10.307832 -6.552302 -1.217248 -3.866416 2.509718 0.611960 0.128410 0.032070 0.323980 5.475807 32.059886 11.096141 24.940070 18.323086 -8.754830 21.454234 44.614797 5.439028 1.908680 -1.155029 -0.321020 0.605860 0.273420 0.233030 
4.400620 17.468270 -12.747490 10.262707 -6.667513 -5.172976 -15.401864 9.732050 6.728821 39.797696 2.888820 -24.838612 -59.265879 57.629978 48.881435 2.398192 14.534125 0.165735 -0.032530 -0.086690 -0.358280 18.507202 -9.300217 2.253008 -16.333205 0.934386 -11.587389 8.809740 -3.664056 -0.859580 -0.368284 -3.614027 3.156184 -0.082700 0.791910 0.197220 -3.796921 0.508649 -9.675877 -2.131408 -0.884483 23.109240 -12.718325 4.202746 10.881448 0.907221 -5.546142 -16.609426 -11.794160 0.550167 41.807976 5.464610 -7.940990 -10.851720 -5.749754 -20.827902 10.558911 -19.640304 1.521287 -1.525123 9.561922 -7.331431 -1.216863 -3.887395 2.486243 0.587530 0.150330 0.001770 0.339240 4.498311 30.474894 10.548050 25.605661 18.664729 -8.424966 23.553096 45.957283 6.249720 1.922157 -1.189458 -0.342090 0.626760 0.269110 0.242970 
4.305120 17.473370 -12.697140 11.520783 -6.331654 -5.459507 -15.456499 9.662545 6.693137 40.001101 3.606064 -26.119274 -66.122811 61.284429 46.455646 2.285229 13.963836 0.320050 -0.004590 -0.054430 -0.317700 18.467540 -9.192506 2.346714 -17.402227 0.847000 -10.205785 9.164941 -3.598549 -2.420254 -0.438699 -3.820481 3.079066 -0.055340 0.756330 0.176430 -3.664660 0.515740 -9.700611 -4.310181 0.092656 23.360707 -12.151297 4.650000 10.470662 0.954058 -4.785648 -16.177128 -10.288183 0.034421 42.545569 5.746760 -7.730890 -12.131980 -4.997560 -20.047511 9.985510 -19.098633 0.536121 -1.536446 8.964953 -8.381617 -1.260831 -3.865977 2.435564 0.625630 0.124870 0.023500 0.326080 3.628193 29.374553 10.316701 25.283523 18.466293 -8.319536 24.158029 46.672537 6.633981 1.914177 -1.177258 -0.358940 0.643760 0.258160 0.216040 
4.215000 17.495100 -12.653060 11.940933 -5.875530 -5.694179 -15.487266 9.681398 6.635802 40.702487 4.776150 -27.865382 -74.187847 63.969897 42.400660 2.120444 13.325595 0.503496 -0.019380 -0.106110 -0.299520 18.454909 -9.175162 2.386704 -17.447723 0.869264 -9.032516 9.151396 -3.613313 -3.102059 -0.469770 -3.955456 3.021381 -0.068410 0.760620 0.199630 -3.602264 0.521331 -9.705988 -4.794439 0.660243 23.836238 -12.058466 5.041422 10.139439 1.270088 -4.278124 -16.042064 -9.331154 -0.636678 42.624725 4.713630 -7.728600 -11.964720 -5.460309 -19.704858 9.436581 -17.887813 -0.016087 -1.694167 8.871243 -10.292182 -1.417492 -3.883394 2.416699 0.652240 0.139220 0.012570 0.301500 3.423457 28.842897 10.461969 24.259269 17.147891 -8.784690 25.521631 48.112475 7.403603 1.876885 -1.207475 -0.381720 0.636980 0.291350 0.183690 
4.142070 17.532410 -12.613140 11.452148 -5.899943 -6.626098 -15.411704 9.799054 6.432333 41.573597 6.260498 -28.541697 -83.590122 64.886722 36.442007 1.999486 12.679389 0.695886 -0.021810 -0.106820 -0.299790 18.518237 -9.354916 2.452414 -16.812515 0.803651 -7.675190 9.426780 -3.766824 -2.927457 -0.517369 -4.050705 2.996774 -0.073260 0.757300 0.204660 -3.795034 0.697654 -9.691685 -3.088094 0.065465 25.199629 -13.347184 5.110643 9.960278 1.563223 -4.506164 -16.386839 -9.820783 -0.313905 43.257696 4.909920 -7.595290 -12.664450 -5.860657 -19.973534 9.354423 -16.924008 0.293624 -2.006042 9.821638 -11.202861 -1.564744 -3.873135 2.398199 0.671440 0.129660 0.029820 0.296560 3.188458 29.241799 10.812712 23.064636 16.129116 -9.544989 26.033635 49.639540 7.908452 1.838659 -1.219866 -0.380220 0.650420 0.302640 0.182250 
4.078470 17.559760 -12.576620 11.054101 -5.974576 -6.998642 -15.334016 9.986667 6.130203 41.526182 8.272231 -29.947300 -97.761288 61.177497 25.281584 2.030029 12.478356 0.777582 -0.028660 -0.124800 -0.329530 18.580601 -9.544380 2.504242 -16.271550 0.746706 -6.893690 9.450061 -3.893564 -2.481859 -0.531803 -4.103028 2.962892 -0.087220 0.757980 0.211410 -3.986357 0.735046 -9.613991 -1.242839 -0.678694 25.895396 -14.487988 4.614241 9.191558 1.453174 -5.534292 -16.182628 -12.069846 0.356851 43.195574 6.476890 -8.495380 -12.804710 -5.762986 -19.265978 9.020153 -16.699320 0.319217 -2.162533 9.148251 -12.351062 -1.576575 -3.845185 2.440980 0.666390 0.108220 0.016910 0.289250 3.267121 28.868663 10.633140 21.177941 15.734014 -9.235058 27.924118 50.999934 9.358013 1.860987 -1.260100 -0.364210 0.626610 0.323980 0.196560 
3.992820 17.567050 -12.533190 11.479357 -5.870594 -6.771332 -15.361710 9.906860 6.207354 40.978386 9.318608 -30.700944 -108.804439 55.014602 16.098475 2.220370 12.713735 0.760879 -0.032530 -0.111860 -0.361180 18.574549 -9.487667 2.458489 -15.993595 0.697300 -6.775047 9.176199 -3.864262 -2.562456 -0.524412 -4.095429 2.977824 -0.095290 0.756280 0.216550 -3.942596 0.625773 -9.632845 -1.548497 -0.501768 25.575527 -14.581504 4.285173 8.898916 1.417034 -5.935185 -16.005601 -13.022760 0.249847 42.736702 6.780670 -9.189420 -12.457450 -4.676175 -18.527440 8.761492 -17.354554 0.113393 -2.415272 8.808387 -13.388449 -1.556614 -3.825912 2.479694 0.627750 0.110010 0.011200 0.299830 2.258639 28.308272 10.599685 20.940950 15.545531 -8.976749 28.537305 52.544640 10.114955 1.875276 -1.305340 -0.330980 0.599020 0.315310 0.223940 
3.880560 17.562100 -12.496130 12.173079 -6.163275 -6.642582 -15.445191 9.595056 6.559487 40.335445 9.547796 -30.294709 -114.058349 48.052759 10.445809 2.277707 12.834812 0.762335 -0.043140 -0.128330 -0.377660 18.541560 -9.284630 2.363487 -15.634410 0.692259 -6.826588 8.999425 -3.773945 -3.082378 -0.507221 -4.099815 2.993061 -0.093250 0.798480 0.233330 -3.794342 0.572413 -9.708755 -3.062757 0.447596 25.022013 -13.988889 4.506750 9.330372 1.376569 -5.568302 -15.626020 -11.956934 -0.016810 41.522932 6.219310 -8.948760 -11.872290 -3.462118 -17.917650 8.466819 -17.452569 -0.076004 -2.598167 8.468327 -14.703298 -1.584319 -3.856040 2.475991 0.608570 0.151990 -0.015770 0.310970 1.129538 27.652463 10.502441 21.051945 15.854897 -8.850086 27.869901 53.827306 10.116059 1.838978 -1.339632 -0.342330 0.604310 0.326020 0.227420 
3.788580 17.564630 -12.460120 12.405864 -6.426502 -7.226540 -15.455570 9.465133 6.709836 39.556156 9.446916 -29.870046 -115.330034 45.126971 8.769520 2.335036 12.721261 0.795220 0.004130 -0.048970 -0.367820 18.541610 -9.248815 2.319122 -15.276019 0.563726 -6.261195 9.047809 -3.807467 -3.004008 -0.535314 -4.133108 2.986783 -0.071770 0.763220 0.241910 -3.783703 0.600767 -9.742720 -3.323662 0.877879 25.533396 -13.692192 4.826883 9.535125 1.330784 -5.739492 -15.725284 -12.297892 0.059021 41.388000 6.612390 -9.016160 -12.071000 -2.662736 -17.666184 8.287940 -17.711187 -0.592582 -2.783681 8.456821 -15.707062 -1.580680 -3.804923 2.534805 0.576980 0.134620 0.012000 0.335490 0.478404 27.669662 10.741142 20.032981 14.987540 -9.219481 28.203335 55.108864 10.520509 1.840721 -1.419116 -0.288740 0.567230 0.275940 0.254790 
3.709650 17.565540 -12.420890 12.215357 -6.740540 -6.966260 -15.411089 9.505596 6.688552 38.005527 9.221431 -30.803851 -114.400877 44.934617 9.070398 2.388708 12.743072 0.811222 0.001730 -0.040410 -0.385880 18.565469 -9.338446 2.304073 -14.397201 0.567771 -6.601829 8.845402 -3.800043 -2.526157 -0.508852 -4.042688 3.041783 -0.074430 0.765450 0.207950 -3.871562 0.677963 -9.728029 -2.548547 0.786797 25.219710 -14.362122 4.878868 8.987347 1.350884 -5.929558 -15.945290 -12.799894 0.274758 41.265256 7.605180 -9.351930 -11.289090 -2.350218 -17.498341 8.318754 -17.659523 -0.057616 -3.129225 8.782930 -17.184570 -1.600654 -3.739276 2.558804 0.565540 0.122500 0.002480 0.359640 0.092744 27.517578 10.895920 19.659931 14.426979 -9.085591 29.063248 55.991964 11.209215 1.858979 -1.457123 -0.294610 0.566060 0.244170 0.271480 
3.612800 17.567850 -12.393480 12.548614 -6.545816 -7.512372 -15.409827 9.639164 6.592904 36.939048 8.556414 -30.573150 -111.804324 45.231607 10.545302 2.418513 12.743703 0.783135 0.055310 0.038220 -0.373220 18.538060 -9.445148 2.261878 -13.920137 0.338278 -6.221522 8.246667 -3.892309 -1.829392 -0.524546 -4.024010 3.040320 -0.049390 0.724080 0.226570 -3.810380 0.631203 -9.643091 -3.634121 1.174543 25.599847 -13.525889 4.995345 9.089203 1.158147 -5.856473 -15.849512 -12.617759 -0.001308 41.049079 8.169650 -9.577750 -11.896000 -1.869703 -17.306872 8.210577 -17.405402 -0.482973 -3.106922 8.313475 -17.639115 -1.518286 -3.693798 2.624783 0.548690 0.100420 0.033390 0.380020 0.034422 27.373709 10.829801 18.295863 14.066044 -9.124308 28.884378 56.258977 11.303200 1.871305 -1.517718 -0.243080 0.519710 0.200590 0.292410 
3.506130 17.585070 -12.377250 12.575780 -5.493982 -8.524145 -15.422460 9.768950 6.561753 36.461651 7.442380 -29.858726 -108.351366 45.395592 12.653265 2.397771 12.762338 0.745885 0.070240 0.049490 -0.338240 18.501277 -9.524219 2.210838 -13.245896 -0.047237 -5.090326 7.766774 -4.078305 -1.024803 -0.548808 -4.031985 3.035785 -0.049650 0.684510 0.219080 -3.711237 0.488458 -9.603141 -4.836806 1.362783 26.845724 -12.334670 4.990940 9.357856 1.080826 -5.581043 -16.240409 -12.301925 -0.390438 41.835004 8.170740 -9.637740 -12.482050 -2.211151 -18.035555 8.361502 -16.445882 -0.596078 -3.132814 8.543141 -17.770850 -1.548177 -3.661719 2.615923 0.570390 0.072690 0.058120 0.367250 0.609133 27.983487 11.212459 16.597270 12.632628 -9.776698 29.065882 56.765040 11.524948 1.868202 -1.532072 -0.237820 0.512960 0.186560 0.277050 
